<mxfile host="app.diagrams.net" agent="Mozilla/5.0 (Macintosh; Intel Mac OS X 10.15; rv:129.0) Gecko/20100101 Firefox/129.0" version="24.7.7" pages="2">
  <diagram name="Page-1" id="KzB2jqBzeuw1xNByI9rR">
    <mxGraphModel dx="1026" dy="701" grid="1" gridSize="10" guides="1" tooltips="1" connect="1" arrows="1" fold="1" page="1" pageScale="1" pageWidth="850" pageHeight="1100" math="0" shadow="0">
      <root>
        <mxCell id="0" />
        <mxCell id="1" parent="0" />
        <mxCell id="jkAJkFTZ_TO73myOIwnz-1" value="" style="shape=image;html=1;verticalAlign=top;verticalLabelPosition=bottom;labelBackgroundColor=#ffffff;imageAspect=0;aspect=fixed;image=https://cdn1.iconfinder.com/data/icons/bootstrap-vol-3/16/hexagon-128.png" vertex="1" parent="1">
          <mxGeometry x="340" y="180" width="128" height="128" as="geometry" />
        </mxCell>
        <mxCell id="jkAJkFTZ_TO73myOIwnz-2" value="" style="shape=image;html=1;verticalAlign=top;verticalLabelPosition=bottom;labelBackgroundColor=#ffffff;imageAspect=0;aspect=fixed;image=https://cdn1.iconfinder.com/data/icons/bootstrap-vol-3/16/hexagon-128.png" vertex="1" parent="1">
          <mxGeometry x="390" y="270" width="128" height="128" as="geometry" />
        </mxCell>
        <mxCell id="jkAJkFTZ_TO73myOIwnz-3" value="" style="shape=image;html=1;verticalAlign=top;verticalLabelPosition=bottom;labelBackgroundColor=#ffffff;imageAspect=0;aspect=fixed;image=https://cdn1.iconfinder.com/data/icons/bootstrap-vol-3/16/hexagon-128.png" vertex="1" parent="1">
          <mxGeometry x="440" y="180" width="128" height="128" as="geometry" />
        </mxCell>
        <mxCell id="jkAJkFTZ_TO73myOIwnz-4" value="" style="shape=image;html=1;verticalAlign=top;verticalLabelPosition=bottom;labelBackgroundColor=#ffffff;imageAspect=0;aspect=fixed;image=https://cdn1.iconfinder.com/data/icons/bootstrap-vol-3/16/hexagon-128.png" vertex="1" parent="1">
          <mxGeometry x="190" y="270" width="128" height="128" as="geometry" />
        </mxCell>
        <mxCell id="jkAJkFTZ_TO73myOIwnz-5" value="" style="shape=image;html=1;verticalAlign=top;verticalLabelPosition=bottom;labelBackgroundColor=#ffffff;imageAspect=0;aspect=fixed;image=https://cdn1.iconfinder.com/data/icons/bootstrap-vol-3/16/hexagon-128.png" vertex="1" parent="1">
          <mxGeometry x="240" y="360" width="128" height="128" as="geometry" />
        </mxCell>
        <mxCell id="jkAJkFTZ_TO73myOIwnz-6" value="" style="shape=image;html=1;verticalAlign=top;verticalLabelPosition=bottom;labelBackgroundColor=#ffffff;imageAspect=0;aspect=fixed;image=https://cdn1.iconfinder.com/data/icons/bootstrap-vol-3/16/hexagon-128.png" vertex="1" parent="1">
          <mxGeometry x="290" y="270" width="128" height="128" as="geometry" />
        </mxCell>
        <mxCell id="jkAJkFTZ_TO73myOIwnz-7" value="" style="shape=image;html=1;verticalAlign=top;verticalLabelPosition=bottom;labelBackgroundColor=#ffffff;imageAspect=0;aspect=fixed;image=https://cdn1.iconfinder.com/data/icons/bootstrap-vol-3/16/hexagon-128.png" vertex="1" parent="1">
          <mxGeometry x="490" y="270" width="128" height="128" as="geometry" />
        </mxCell>
        <mxCell id="jkAJkFTZ_TO73myOIwnz-8" value="" style="shape=image;html=1;verticalAlign=top;verticalLabelPosition=bottom;labelBackgroundColor=#ffffff;imageAspect=0;aspect=fixed;image=https://cdn1.iconfinder.com/data/icons/bootstrap-vol-3/16/hexagon-128.png" vertex="1" parent="1">
          <mxGeometry x="540" y="360" width="128" height="128" as="geometry" />
        </mxCell>
        <mxCell id="jkAJkFTZ_TO73myOIwnz-9" value="" style="shape=image;html=1;verticalAlign=top;verticalLabelPosition=bottom;labelBackgroundColor=#ffffff;imageAspect=0;aspect=fixed;image=https://cdn1.iconfinder.com/data/icons/bootstrap-vol-3/16/hexagon-128.png" vertex="1" parent="1">
          <mxGeometry x="590" y="270" width="128" height="128" as="geometry" />
        </mxCell>
        <mxCell id="jkAJkFTZ_TO73myOIwnz-10" value="" style="shape=image;html=1;verticalAlign=top;verticalLabelPosition=bottom;labelBackgroundColor=#ffffff;imageAspect=0;aspect=fixed;image=https://cdn1.iconfinder.com/data/icons/bootstrap-vol-3/16/hexagon-128.png" vertex="1" parent="1">
          <mxGeometry x="340" y="360" width="128" height="128" as="geometry" />
        </mxCell>
        <mxCell id="jkAJkFTZ_TO73myOIwnz-11" value="" style="shape=image;html=1;verticalAlign=top;verticalLabelPosition=bottom;labelBackgroundColor=#ffffff;imageAspect=0;aspect=fixed;image=https://cdn1.iconfinder.com/data/icons/bootstrap-vol-3/16/hexagon-128.png" vertex="1" parent="1">
          <mxGeometry x="390" y="450" width="128" height="128" as="geometry" />
        </mxCell>
        <mxCell id="jkAJkFTZ_TO73myOIwnz-12" value="" style="shape=image;html=1;verticalAlign=top;verticalLabelPosition=bottom;labelBackgroundColor=#ffffff;imageAspect=0;aspect=fixed;image=https://cdn1.iconfinder.com/data/icons/bootstrap-vol-3/16/hexagon-128.png" vertex="1" parent="1">
          <mxGeometry x="440" y="360" width="128" height="128" as="geometry" />
        </mxCell>
        <mxCell id="jkAJkFTZ_TO73myOIwnz-13" value="" style="shape=image;html=1;verticalAlign=top;verticalLabelPosition=bottom;labelBackgroundColor=#ffffff;imageAspect=0;aspect=fixed;image=https://cdn1.iconfinder.com/data/icons/bootstrap-vol-3/16/hexagon-128.png" vertex="1" parent="1">
          <mxGeometry x="490" y="90" width="128" height="128" as="geometry" />
        </mxCell>
        <mxCell id="jkAJkFTZ_TO73myOIwnz-14" value="" style="shape=image;html=1;verticalAlign=top;verticalLabelPosition=bottom;labelBackgroundColor=#ffffff;imageAspect=0;aspect=fixed;image=https://cdn1.iconfinder.com/data/icons/bootstrap-vol-3/16/hexagon-128.png" vertex="1" parent="1">
          <mxGeometry x="540" y="180" width="128" height="128" as="geometry" />
        </mxCell>
        <mxCell id="jkAJkFTZ_TO73myOIwnz-15" value="" style="shape=image;html=1;verticalAlign=top;verticalLabelPosition=bottom;labelBackgroundColor=#ffffff;imageAspect=0;aspect=fixed;image=https://cdn1.iconfinder.com/data/icons/bootstrap-vol-3/16/hexagon-128.png" vertex="1" parent="1">
          <mxGeometry x="590" y="90" width="128" height="128" as="geometry" />
        </mxCell>
        <mxCell id="jkAJkFTZ_TO73myOIwnz-16" value="" style="shape=image;html=1;verticalAlign=top;verticalLabelPosition=bottom;labelBackgroundColor=#ffffff;imageAspect=0;aspect=fixed;image=https://cdn1.iconfinder.com/data/icons/bootstrap-vol-3/16/hexagon-128.png" vertex="1" parent="1">
          <mxGeometry x="190" y="90" width="128" height="128" as="geometry" />
        </mxCell>
        <mxCell id="jkAJkFTZ_TO73myOIwnz-17" value="" style="shape=image;html=1;verticalAlign=top;verticalLabelPosition=bottom;labelBackgroundColor=#ffffff;imageAspect=0;aspect=fixed;image=https://cdn1.iconfinder.com/data/icons/bootstrap-vol-3/16/hexagon-128.png" vertex="1" parent="1">
          <mxGeometry x="240" y="180" width="128" height="128" as="geometry" />
        </mxCell>
        <mxCell id="jkAJkFTZ_TO73myOIwnz-18" value="" style="shape=image;html=1;verticalAlign=top;verticalLabelPosition=bottom;labelBackgroundColor=#ffffff;imageAspect=0;aspect=fixed;image=https://cdn1.iconfinder.com/data/icons/bootstrap-vol-3/16/hexagon-128.png" vertex="1" parent="1">
          <mxGeometry x="290" y="90" width="128" height="128" as="geometry" />
        </mxCell>
        <mxCell id="jkAJkFTZ_TO73myOIwnz-19" value="" style="shape=image;html=1;verticalAlign=top;verticalLabelPosition=bottom;labelBackgroundColor=#ffffff;imageAspect=0;aspect=fixed;image=https://cdn1.iconfinder.com/data/icons/bootstrap-vol-3/16/hexagon-128.png" vertex="1" parent="1">
          <mxGeometry x="390" y="90" width="128" height="128" as="geometry" />
        </mxCell>
        <mxCell id="jkAJkFTZ_TO73myOIwnz-20" value="" style="shape=image;html=1;verticalAlign=top;verticalLabelPosition=bottom;labelBackgroundColor=#ffffff;imageAspect=0;aspect=fixed;image=https://cdn1.iconfinder.com/data/icons/bootstrap-vol-3/16/hexagon-128.png" vertex="1" parent="1">
          <mxGeometry x="290" y="450" width="128" height="128" as="geometry" />
        </mxCell>
        <mxCell id="jkAJkFTZ_TO73myOIwnz-21" value="" style="shape=image;html=1;verticalAlign=top;verticalLabelPosition=bottom;labelBackgroundColor=#ffffff;imageAspect=0;aspect=fixed;image=https://cdn1.iconfinder.com/data/icons/bootstrap-vol-3/16/hexagon-128.png" vertex="1" parent="1">
          <mxGeometry x="490" y="450" width="128" height="128" as="geometry" />
        </mxCell>
        <mxCell id="jkAJkFTZ_TO73myOIwnz-22" value="" style="shape=image;html=1;verticalAlign=top;verticalLabelPosition=bottom;labelBackgroundColor=#ffffff;imageAspect=0;aspect=fixed;image=https://cdn1.iconfinder.com/data/icons/bootstrap-vol-3/16/hexagon-128.png" vertex="1" parent="1">
          <mxGeometry x="640" y="180" width="128" height="128" as="geometry" />
        </mxCell>
        <mxCell id="jkAJkFTZ_TO73myOIwnz-23" value="" style="shape=image;html=1;verticalAlign=top;verticalLabelPosition=bottom;labelBackgroundColor=#ffffff;imageAspect=0;aspect=fixed;image=https://cdn1.iconfinder.com/data/icons/bootstrap-vol-3/16/hexagon-128.png" vertex="1" parent="1">
          <mxGeometry x="140" y="180" width="128" height="128" as="geometry" />
        </mxCell>
        <mxCell id="jkAJkFTZ_TO73myOIwnz-24" value="" style="shape=image;html=1;verticalAlign=top;verticalLabelPosition=bottom;labelBackgroundColor=#ffffff;imageAspect=0;aspect=fixed;image=https://cdn1.iconfinder.com/data/icons/bootstrap-vol-3/16/hexagon-128.png" vertex="1" parent="1">
          <mxGeometry x="640" y="360" width="128" height="128" as="geometry" />
        </mxCell>
        <mxCell id="jkAJkFTZ_TO73myOIwnz-25" value="" style="shape=image;html=1;verticalAlign=top;verticalLabelPosition=bottom;labelBackgroundColor=#ffffff;imageAspect=0;aspect=fixed;image=https://cdn1.iconfinder.com/data/icons/bootstrap-vol-3/16/hexagon-128.png" vertex="1" parent="1">
          <mxGeometry x="590" y="450" width="128" height="128" as="geometry" />
        </mxCell>
        <mxCell id="jkAJkFTZ_TO73myOIwnz-26" value="" style="shape=image;html=1;verticalAlign=top;verticalLabelPosition=bottom;labelBackgroundColor=#ffffff;imageAspect=0;aspect=fixed;image=https://cdn1.iconfinder.com/data/icons/bootstrap-vol-3/16/hexagon-128.png" vertex="1" parent="1">
          <mxGeometry x="140" y="360" width="128" height="128" as="geometry" />
        </mxCell>
        <mxCell id="jkAJkFTZ_TO73myOIwnz-27" value="" style="shape=image;html=1;verticalAlign=top;verticalLabelPosition=bottom;labelBackgroundColor=#ffffff;imageAspect=0;aspect=fixed;image=https://cdn1.iconfinder.com/data/icons/bootstrap-vol-3/16/hexagon-128.png" vertex="1" parent="1">
          <mxGeometry x="190" y="450" width="128" height="128" as="geometry" />
        </mxCell>
      </root>
    </mxGraphModel>
  </diagram>
  <diagram id="DxqGTJS5Th1NNGIiAX8m" name="chappel">
    <mxGraphModel dx="1080" dy="738" grid="1" gridSize="10" guides="1" tooltips="1" connect="1" arrows="1" fold="1" page="1" pageScale="1" pageWidth="850" pageHeight="1100" math="0" shadow="0">
      <root>
        <mxCell id="0" />
        <mxCell id="1" parent="0" />
        <mxCell id="O39N1Gp3Ljk1FKbeHGgf-1" value="" style="whiteSpace=wrap;html=1;aspect=fixed;fillColor=none;" parent="1" vertex="1">
          <mxGeometry x="120" y="350" width="170" height="170" as="geometry" />
        </mxCell>
        <mxCell id="O39N1Gp3Ljk1FKbeHGgf-2" value="" style="whiteSpace=wrap;html=1;aspect=fixed;fillColor=none;" parent="1" vertex="1">
          <mxGeometry x="360" y="70" width="70" height="70" as="geometry" />
        </mxCell>
        <mxCell id="O39N1Gp3Ljk1FKbeHGgf-3" value="" style="whiteSpace=wrap;html=1;aspect=fixed;fillColor=none;" parent="1" vertex="1">
          <mxGeometry x="360" y="170" width="70" height="70" as="geometry" />
        </mxCell>
        <mxCell id="O39N1Gp3Ljk1FKbeHGgf-4" value="" style="whiteSpace=wrap;html=1;aspect=fixed;fillColor=none;" parent="1" vertex="1">
          <mxGeometry x="40" y="170" width="70" height="70" as="geometry" />
        </mxCell>
        <mxCell id="O39N1Gp3Ljk1FKbeHGgf-5" value="" style="whiteSpace=wrap;html=1;aspect=fixed;fillColor=none;" parent="1" vertex="1">
          <mxGeometry x="40" y="70" width="70" height="70" as="geometry" />
        </mxCell>
        <mxCell id="O39N1Gp3Ljk1FKbeHGgf-6" value="" style="rounded=0;whiteSpace=wrap;html=1;fillColor=none;strokeColor=default;" parent="1" vertex="1">
          <mxGeometry x="110" y="100" width="40" height="30" as="geometry" />
        </mxCell>
        <mxCell id="O39N1Gp3Ljk1FKbeHGgf-7" value="" style="ellipse;whiteSpace=wrap;html=1;aspect=fixed;" parent="1" vertex="1">
          <mxGeometry x="540" y="540" width="210" height="210" as="geometry" />
        </mxCell>
        <mxCell id="O39N1Gp3Ljk1FKbeHGgf-8" value="" style="ellipse;whiteSpace=wrap;html=1;aspect=fixed;" parent="1" vertex="1">
          <mxGeometry x="615" y="615" width="60" height="60" as="geometry" />
        </mxCell>
        <mxCell id="O39N1Gp3Ljk1FKbeHGgf-9" value="" style="verticalLabelPosition=bottom;verticalAlign=top;html=1;shape=mxgraph.basic.patternFillRect;fillStyle=diag;step=5;fillStrokeWidth=0.2;fillStrokeColor=#dddddd;rotation=45;" parent="1" vertex="1">
          <mxGeometry x="570" y="585" width="50" height="15" as="geometry" />
        </mxCell>
        <mxCell id="O39N1Gp3Ljk1FKbeHGgf-10" value="" style="verticalLabelPosition=bottom;verticalAlign=top;html=1;shape=mxgraph.basic.patternFillRect;fillStyle=diag;step=5;fillStrokeWidth=0.2;fillStrokeColor=#dddddd;rotation=45;" parent="1" vertex="1">
          <mxGeometry x="670" y="690" width="50" height="15" as="geometry" />
        </mxCell>
        <mxCell id="O39N1Gp3Ljk1FKbeHGgf-14" value="" style="verticalLabelPosition=bottom;verticalAlign=top;html=1;shape=mxgraph.basic.patternFillRect;fillStyle=diag;step=5;fillStrokeWidth=0.2;fillStrokeColor=#dddddd;rotation=-230;" parent="1" vertex="1">
          <mxGeometry x="670" y="585" width="50" height="15" as="geometry" />
        </mxCell>
        <mxCell id="O39N1Gp3Ljk1FKbeHGgf-15" value="" style="verticalLabelPosition=bottom;verticalAlign=top;html=1;shape=mxgraph.basic.patternFillRect;fillStyle=diag;step=5;fillStrokeWidth=0.2;fillStrokeColor=#dddddd;rotation=90;" parent="1" vertex="1">
          <mxGeometry x="620" y="570" width="50" height="15" as="geometry" />
        </mxCell>
        <mxCell id="O39N1Gp3Ljk1FKbeHGgf-16" value="" style="verticalLabelPosition=bottom;verticalAlign=top;html=1;shape=mxgraph.basic.patternFillRect;fillStyle=diag;step=5;fillStrokeWidth=0.2;fillStrokeColor=#dddddd;rotation=90;" parent="1" vertex="1">
          <mxGeometry x="620" y="705" width="50" height="15" as="geometry" />
        </mxCell>
        <mxCell id="O39N1Gp3Ljk1FKbeHGgf-17" value="" style="verticalLabelPosition=bottom;verticalAlign=top;html=1;shape=mxgraph.basic.patternFillRect;fillStyle=diag;step=5;fillStrokeWidth=0.2;fillStrokeColor=#dddddd;rotation=-180;" parent="1" vertex="1">
          <mxGeometry x="550" y="637.5" width="50" height="15" as="geometry" />
        </mxCell>
        <mxCell id="O39N1Gp3Ljk1FKbeHGgf-18" value="" style="verticalLabelPosition=bottom;verticalAlign=top;html=1;shape=mxgraph.basic.patternFillRect;fillStyle=diag;step=5;fillStrokeWidth=0.2;fillStrokeColor=#dddddd;rotation=-180;" parent="1" vertex="1">
          <mxGeometry x="690" y="640" width="50" height="15" as="geometry" />
        </mxCell>
        <mxCell id="O39N1Gp3Ljk1FKbeHGgf-19" value="" style="verticalLabelPosition=bottom;verticalAlign=top;html=1;shape=mxgraph.basic.patternFillRect;fillStyle=diag;step=5;fillStrokeWidth=0.2;fillStrokeColor=#dddddd;rotation=-230;" parent="1" vertex="1">
          <mxGeometry x="570" y="690" width="50" height="15" as="geometry" />
        </mxCell>
        <mxCell id="JNYkDQcb0m2an1FRz5C0-1" value="" style="shape=mxgraph.signs.travel.stairs;html=1;pointerEvents=1;verticalLabelPosition=bottom;verticalAlign=top;align=center;" vertex="1" parent="1">
          <mxGeometry x="625" y="627.5" width="40" height="35" as="geometry" />
        </mxCell>
        <mxCell id="JNYkDQcb0m2an1FRz5C0-2" value="Secret Sanctum" style="text;strokeColor=none;align=center;fillColor=none;html=1;verticalAlign=middle;whiteSpace=wrap;rounded=0;fontSize=16;" vertex="1" parent="1">
          <mxGeometry x="520" y="490" width="160" height="30" as="geometry" />
        </mxCell>
      </root>
    </mxGraphModel>
  </diagram>
</mxfile>
